<svg width="600" height="603" viewBox="0 0 600 603" fill="none" xmlns="http://www.w3.org/2000/svg">
<path d="M10.9333 2.2667C8.53331 3.4667 5.19998 6.2667 3.59998 8.53336L0.666645 12.6667L0.266645 300C-2.16888e-05 571.467 0.133312 587.6 2.26665 592C3.59998 594.533 6.66665 598 9.19998 599.6L13.7333 602.667H227.867C469.867 602.667 448.533 603.6 454.4 592C457.333 586.267 457.333 585.2 457.333 538.533V490.933L464.4 489.333C475.467 486.667 488 481.6 497.867 475.733L506.933 470.4L538.533 501.867C572.8 536.133 574.8 537.467 585.2 534.667C591.6 532.933 598.133 525.867 599.333 519.467C601.2 509.733 598.8 506.533 565.867 473.333L534.8 442L539.333 434.667C550.267 417.333 556.133 395.467 556.133 372.4C556.133 339.2 543.2 309.333 519.067 286.667C503.067 271.467 484 261.067 465.067 257.067L457.333 255.467V195.867C457.333 157.333 456.8 134.8 455.867 132.4C454 127.333 331.2 4.2667 325.733 1.8667C322.133 0.266696 296.533 2.96027e-05 168.4 2.96027e-05C30.1333 2.96027e-05 14.9333 0.266696 10.9333 2.2667ZM297.6 92.2667C298 150.4 298 150.533 307.067 156C311.067 158.533 314.133 158.667 364.4 158.667H417.333V207.067V255.467L408.8 257.2C388.667 261.2 367.6 273.733 350.533 291.733C332.533 310.667 321.867 333.2 318.667 359.333C314.133 395.467 329.2 436.267 356.133 460.667C371.333 474.267 392.667 485.6 410.667 489.467L417.333 490.933V526.8V562.667H228.667H40V301.333V40H168.667H297.2L297.6 92.2667ZM388 119.067C388 119.6 376.8 119.867 363.067 119.733L338 119.333L337.6 93.3333L337.333 67.3333L362.667 92.6667C376.533 106.533 388 118.4 388 119.067ZM454 295.333C472.667 299.2 491.867 312.133 502.533 327.867C524.4 360.267 520.667 401.467 493.2 429.067C478.4 444 462.8 450.8 441.467 451.733C424.4 452.4 416.133 450.8 401.6 443.733C373.467 430 355.467 398.533 357.867 367.467C359.467 347.333 367.067 331.333 381.867 316.667C401.333 297.333 427.2 289.733 454 295.333Z" fill="black"/>
<path d="M91.3333 121.333C89.8666 121.867 86.9333 124.267 84.6666 126.667L80.6666 130.8V180.667V230.4L84 234C90.9333 241.467 89.7333 241.333 154.267 241.333C222.4 241.333 220.667 241.6 226.4 230.667C229.333 224.933 229.333 223.867 229.333 180.667C229.333 140.133 229.067 136.267 226.667 131.067C225.2 127.733 222.267 124.267 219.733 122.667C215.467 120.133 213.2 120 154.667 120.133C121.333 120.133 92.8 120.667 91.3333 121.333ZM189.067 180.267L189.467 201.333H154H118.667V180.933C118.667 169.6 119.067 160 119.6 159.6C120.133 159.067 135.867 158.8 154.533 158.933L188.667 159.333L189.067 180.267Z" fill="black"/>
<path d="M94 282.267C77.2 286.533 75.0666 311.067 90.6666 318.933C94.9333 321.2 102.4 321.333 186.8 321.333H278.267L282.667 318.267C289.867 313.467 292.533 308.8 292.533 301.467C292.533 296.4 291.733 293.867 288.8 290C281.867 281.067 285.733 281.333 186.4 281.467C137.067 281.6 95.4666 282 94 282.267Z" fill="black"/>
<path d="M90.6667 363.733C77.4667 370.267 76.1333 388.933 88.2667 397.6L92.6667 400.667H178.933C264.533 400.667 265.2 400.667 268.933 397.867C274.4 393.733 277.733 387.2 277.733 380.4C277.733 373.733 274.933 369.067 268 364.267L263.6 361.333H179.467C102 361.333 94.9333 361.467 90.6667 363.733Z" fill="black"/>
<path d="M90 443.867C83.3333 448 80.9333 451.467 80.2667 458.8C79.4667 467.333 82.4 473.467 89.2 477.733L94 480.667H190C279.867 480.667 286.267 480.533 290.4 478.267C295.333 475.6 299.6 469.333 300.8 463.067C302 456.8 296.8 446.933 290.667 443.733C286.267 441.467 280.267 441.333 190 441.333C98.9333 441.333 93.7333 441.467 90 443.867Z" fill="black"/>
</svg>
